<?xml version="1.0" standalone="no"?>
<!DOCTYPE svg PUBLIC "-//W3C//DTD SVG 20010904//EN"
 "http://www.w3.org/TR/2001/REC-SVG-20010904/DTD/svg10.dtd">
<svg version="1.0" xmlns="http://www.w3.org/2000/svg"
 width="700.000000pt" height="700.000000pt" viewBox="0 0 700.000000 700.000000"
 preserveAspectRatio="xMidYMid meet">
<metadata>
Created by potrace 1.14, written by Peter Selinger 2001-2017
</metadata>
<g transform="translate(0.000000,700.000000) scale(0.100000,-0.100000)"
fill="#000000" stroke="none">
<path d="M4135 6104 c-6 -1 -27 -5 -48 -9 -38 -6 -99 -51 -118 -87 -18 -33
-19 -56 -20 -345 0 -261 1 -284 19 -320 27 -52 62 -82 113 -97 88 -26 179 5
226 76 l28 42 2 285 c1 157 -2 302 -8 321 -10 39 -51 90 -89 110 -26 14 -88
28 -105 24z"/>
<path d="M2475 5428 c-52 -11 -113 -60 -135 -111 -20 -44 -20 -123 -1 -171 14
-35 181 -202 235 -235 81 -51 194 -29 248 48 59 83 55 193 -10 259 -9 10 -46
50 -81 90 -36 40 -81 82 -100 94 -42 27 -103 36 -156 26z"/>
<path d="M5709 5424 c-39 -12 -76 -43 -238 -201 -108 -104 -201 -204 -213
-226 -18 -36 -27 -118 -17 -157 18 -69 89 -127 167 -137 89 -10 126 15 339
230 166 168 191 198 202 239 44 161 -86 297 -240 252z"/>
<path d="M3990 4824 c-14 -2 -52 -9 -85 -15 -133 -23 -307 -96 -435 -182 -46
-31 -153 -117 -180 -146 -51 -53 -55 -54 -97 -33 -54 27 -172 73 -213 84 -143
35 -214 43 -380 43 -123 0 -253 -10 -270 -20 -4 -2 -22 -7 -41 -10 -129 -22
-362 -127 -492 -223 -107 -77 -241 -210 -316 -312 -79 -106 -173 -296 -207
-420 l-27 -95 -76 -23 c-86 -27 -203 -76 -241 -102 -14 -9 -52 -35 -84 -56
-143 -94 -307 -293 -384 -464 -76 -170 -103 -308 -98 -505 2 -77 7 -151 10
-165 3 -14 9 -41 12 -60 16 -95 88 -268 159 -379 173 -276 504 -480 835 -516
78 -9 2717 -10 2775 -1 22 3 58 8 80 10 65 8 208 53 289 91 143 67 300 187
401 306 239 283 326 680 228 1039 -8 30 -24 80 -35 111 l-20 56 56 82 c93 136
138 238 174 396 47 205 45 401 -5 595 -113 443 -442 770 -890 886 -81 21 -127
26 -258 29 -88 2 -171 2 -185 -1z m275 -398 c190 -30 325 -97 459 -230 162
-161 239 -341 240 -566 1 -167 -16 -248 -84 -392 l-27 -56 -55 47 c-226 193
-441 276 -738 287 -47 1 -88 3 -92 3 -4 1 -14 27 -23 59 -40 140 -97 262 -181
387 -53 79 -77 109 -156 193 l-41 44 27 25 c171 158 435 236 671 199z m-1490
-251 c217 -40 388 -130 549 -291 111 -111 201 -265 239 -409 21 -78 24 -95 43
-270 9 -82 2 -79 277 -81 286 -2 350 -13 482 -78 203 -101 368 -307 409 -511
4 -16 9 -41 11 -55 8 -36 7 -166 0 -225 -14 -113 -78 -261 -153 -355 -118
-147 -258 -237 -429 -276 -72 -16 -173 -18 -1408 -18 -731 0 -1357 3 -1390 7
-184 19 -381 142 -504 314 -93 131 -136 263 -140 433 -5 213 68 393 224 546
144 142 323 217 538 225 31 1 62 8 68 15 6 7 19 70 29 141 38 259 127 443 294
608 161 160 351 258 546 281 30 3 57 8 59 10 6 5 213 -3 256 -11z"/>
<path d="M5896 3795 c-95 -34 -150 -138 -124 -232 15 -53 53 -99 104 -124 42
-20 58 -21 328 -21 300 0 314 2 370 51 71 62 74 201 7 275 -55 61 -79 65 -376
65 -206 0 -279 -3 -309 -14z"/>
<path d="M5535 2314 c-101 -52 -140 -162 -95 -262 23 -51 198 -226 247 -248
42 -18 114 -18 158 0 94 40 142 163 100 262 -17 41 -196 224 -242 248 -40 20
-129 21 -168 0z"/>
</g>
</svg>
